<?xml version="1.0" encoding="UTF-8"?>
<svg xmlns="http://www.w3.org/2000/svg" xmlns:xlink="http://www.w3.org/1999/xlink" width="50px" height="50px" viewBox="0 0 50 50" version="1.1">
<g id="surface1">
<path style="fill-rule:nonzero;fill:rgb(90.980392%,89.411765%,38.431373%);fill-opacity:1;stroke-width:1;stroke-linecap:butt;stroke-linejoin:miter;stroke:rgb(9.803922%,9.803922%,9.803922%);stroke-opacity:1;stroke-miterlimit:10;" d="M 83.484375 24.460938 C 83.484375 21.90625 81.40625 19.828125 78.851562 19.828125 C 77.953125 19.828125 77.125 20.09375 76.421875 20.539062 C 76.6875 19.953125 76.84375 19.3125 76.84375 18.617188 C 76.84375 16.0625 74.773438 13.992188 72.21875 13.992188 C 70.21875 13.992188 68.53125 15.265625 67.882812 17.046875 C 67.125 16.5 66.203125 16.171875 65.195312 16.171875 C 64.273438 16.171875 63.421875 16.453125 62.703125 16.914062 C 62.734375 16.671875 62.78125 16.429688 62.78125 16.171875 C 62.78125 13.625 60.703125 11.546875 58.148438 11.546875 C 56.421875 11.546875 54.9375 12.5 54.140625 13.890625 C 53.484375 13.523438 52.71875 13.296875 51.90625 13.296875 C 49.351562 13.296875 47.28125 15.359375 47.28125 17.921875 C 47.28125 18.09375 47.3125 18.25 47.328125 18.421875 C 46.710938 18.109375 46.015625 17.921875 45.28125 17.921875 C 45.15625 17.921875 45.039062 17.953125 44.921875 17.953125 C 45.148438 17.40625 45.28125 16.8125 45.28125 16.171875 C 45.28125 13.625 43.203125 11.546875 40.648438 11.546875 C 38.09375 11.546875 36.015625 13.625 36.015625 16.171875 C 36.015625 16.234375 36.03125 16.296875 36.039062 16.359375 C 35.640625 16.25 35.234375 16.171875 34.8125 16.171875 C 34.5625 16.171875 34.3125 16.210938 34.070312 16.25 C 34.070312 16.226562 34.078125 16.203125 34.078125 16.171875 C 34.078125 13.625 32.007812 11.546875 29.453125 11.546875 C 26.890625 11.546875 24.828125 13.625 24.828125 16.171875 C 22.265625 16.171875 20.195312 18.25 20.195312 20.804688 C 20.195312 21.0625 20.234375 21.3125 20.273438 21.554688 C 18.046875 21.890625 16.328125 23.796875 16.328125 26.117188 C 16.328125 28.3125 17.859375 30.148438 19.921875 30.617188 L 17.625 33.640625 L 47.28125 40.921875 L 72.21875 36.070312 L 81.0625 31.96875 L 80.609375 28.742188 C 82.289062 28.046875 83.484375 26.398438 83.484375 24.460938 Z M 83.484375 24.460938 " transform="matrix(0.5,0,0,0.5,0,0)"/>
<path style=" stroke:none;fill-rule:nonzero;fill:rgb(93.72549%,93.72549%,93.72549%);fill-opacity:1;" d="M 13.332031 46.363281 C 12.835938 46.363281 12.417969 46.007812 12.335938 45.519531 L 7.175781 14.535156 C 7.125 14.242188 7.207031 13.945312 7.398438 13.71875 C 7.59375 13.492188 7.875 13.359375 8.171875 13.359375 L 41.828125 13.359375 C 42.125 13.359375 42.40625 13.492188 42.601562 13.71875 C 42.789062 13.945312 42.875 14.242188 42.824219 14.535156 L 37.664062 45.515625 C 37.585938 46.007812 37.164062 46.363281 36.667969 46.363281 Z M 13.332031 46.363281 "/>
<path style=" stroke:none;fill-rule:nonzero;fill:rgb(9.803922%,9.803922%,9.803922%);fill-opacity:1;" d="M 41.828125 13.609375 C 42.296875 13.609375 42.65625 14.03125 42.578125 14.496094 L 37.417969 45.476562 C 37.359375 45.84375 37.039062 46.113281 36.667969 46.113281 L 13.332031 46.113281 C 12.960938 46.113281 12.640625 45.84375 12.582031 45.476562 L 7.421875 14.492188 C 7.34375 14.03125 7.703125 13.609375 8.171875 13.609375 L 41.828125 13.609375 M 41.828125 13.109375 L 8.171875 13.109375 C 7.800781 13.109375 7.453125 13.273438 7.210938 13.554688 C 6.96875 13.835938 6.867188 14.210938 6.929688 14.578125 L 12.089844 45.558594 C 12.191406 46.171875 12.710938 46.613281 13.332031 46.613281 L 36.667969 46.613281 C 37.289062 46.613281 37.8125 46.171875 37.914062 45.558594 L 43.070312 14.578125 C 43.132812 14.210938 43.03125 13.835938 42.789062 13.554688 C 42.550781 13.273438 42.199219 13.109375 41.828125 13.109375 Z M 41.828125 13.109375 "/>
<path style=" stroke:none;fill-rule:nonzero;fill:rgb(64.705882%,16.078431%,16.078431%);fill-opacity:1;" d="M 16.203125 46.113281 L 12.6875 46.113281 L 7.273438 13.609375 L 12.339844 13.609375 Z M 16.203125 46.113281 "/>
<path style=" stroke:none;fill-rule:nonzero;fill:rgb(64.705882%,16.078431%,16.078431%);fill-opacity:1;" d="M 23.242188 46.113281 L 19.722656 46.113281 L 17.40625 13.609375 L 22.46875 13.609375 Z M 23.242188 46.113281 "/>
<path style=" stroke:none;fill-rule:nonzero;fill:rgb(64.705882%,16.078431%,16.078431%);fill-opacity:1;" d="M 30.277344 46.113281 L 26.757812 46.113281 L 27.53125 13.609375 L 32.59375 13.609375 Z M 30.277344 46.113281 "/>
<path style=" stroke:none;fill-rule:nonzero;fill:rgb(64.705882%,16.078431%,16.078431%);fill-opacity:1;" d="M 37.3125 46.113281 L 33.796875 46.113281 L 37.660156 13.609375 L 42.726562 13.609375 Z M 37.3125 46.113281 "/>
<path style=" stroke:none;fill-rule:nonzero;fill:rgb(9.803922%,9.803922%,9.803922%);fill-opacity:1;" d="M 42.21875 13.609375 C 42.484375 13.609375 42.6875 13.847656 42.640625 14.109375 L 37.375 45.753906 C 37.335938 45.960938 37.15625 46.113281 36.949219 46.113281 L 13.050781 46.113281 C 12.84375 46.113281 12.664062 45.960938 12.628906 45.753906 L 7.359375 14.109375 C 7.3125 13.847656 7.515625 13.609375 7.78125 13.609375 L 42.21875 13.609375 M 42.21875 13.109375 L 7.78125 13.109375 C 7.507812 13.109375 7.25 13.230469 7.070312 13.4375 C 6.894531 13.648438 6.820312 13.921875 6.867188 14.191406 L 12.132812 45.835938 C 12.210938 46.285156 12.59375 46.613281 13.050781 46.613281 L 36.949219 46.613281 C 37.40625 46.613281 37.789062 46.285156 37.867188 45.835938 L 43.132812 14.191406 C 43.179688 13.921875 43.105469 13.648438 42.929688 13.4375 C 42.75 13.230469 42.492188 13.109375 42.21875 13.109375 Z M 42.21875 13.109375 "/>
</g>
</svg>
